<?xml version="1.0" encoding="UTF-8"?>
<svg version="1.1" xmlns="http://www.w3.org/2000/svg" width="512" height="512">
<path d="M0 0 C1.86523437 1.28385925 1.86523437 1.28385925 3.71875 3.00463867 C4.76023193 3.96169205 4.76023193 3.96169205 5.82275391 4.93807983 C6.54124512 5.61851349 7.25973633 6.29894714 8 7 C8.70431152 7.65714996 9.40862305 8.31429993 10.13427734 8.99136353 C14.95565202 13.52550304 19.68712082 18.15216205 24.41162109 22.78686523 C26.14188784 24.47518908 27.88190565 26.15357517 29.63134766 27.82202148 C32.17439821 30.24956543 34.68325575 32.70830032 37.1875 35.17578125 C38.3638501 36.27941765 38.3638501 36.27941765 39.56396484 37.40534973 C43.40448223 41.25914815 45.47971971 43.79778552 45.59814453 49.36914062 C45.32534596 53.8047631 44.13408182 56.06286875 40.875 59.1875 C39.65103516 60.41146484 39.65103516 60.41146484 38.40234375 61.66015625 C37.60957031 62.43230469 36.81679688 63.20445313 36 64 C34.79554994 65.36017694 33.60526646 66.73320161 32.4375 68.125 C31.633125 69.07375 30.82875 70.0225 30 71 C30.42152344 71.48210937 30.84304688 71.96421875 31.27734375 72.4609375 C32.09912109 73.40839844 32.09912109 73.40839844 32.9375 74.375 C33.48277344 75.00148438 34.02804687 75.62796875 34.58984375 76.2734375 C37.4625404 79.79070043 37.44859777 82.51402232 37 87 C35.22719439 89.97672584 33.14391985 92.42804007 30 94 C26.01175432 94.1834593 22.36196943 93.99454157 19.07421875 91.59375 C17.4375 89.9375 17.4375 89.9375 15 87 C11.59937986 88.40715316 10.10770302 90.02868228 8 93 C8.5053125 93.47308594 9.010625 93.94617188 9.53125 94.43359375 C12.97928745 97.9432033 15.51180966 100.61744843 15.75 105.6875 C15.4545753 109.04143926 14.92826262 110.10434527 12.9375 113 C9.40055558 115.40813237 7.27436594 116 3 116 C-1.23114664 114.42369047 -3.99901204 112.3472558 -7 109 C-9.98093009 110.34027957 -12.06345315 111.81531889 -14.36627197 114.12576294 C-15.01124634 114.76798798 -15.6562207 115.41021301 -16.32073975 116.07189941 C-17.01701477 116.77536499 -17.71328979 117.47883057 -18.43066406 118.20361328 C-19.17251953 118.9451767 -19.914375 119.68674011 -20.67871094 120.45077515 C-23.12911939 122.90257671 -25.572368 125.36138605 -28.015625 127.8203125 C-29.71341057 129.52182825 -31.41163829 131.22290292 -33.11029053 132.92355347 C-37.57974916 137.40064806 -42.04316914 141.88371638 -46.50537109 146.36804199 C-51.05985468 150.94298469 -55.62000567 155.51227048 -60.1796875 160.08203125 C-69.12535692 169.04914995 -78.0648529 178.02239708 -87 187 C-86.74274643 187.53138077 -86.48549286 188.06276154 -86.22044373 188.61024475 C-85.03675747 191.06212707 -83.86015132 193.5173457 -82.68359375 195.97265625 C-82.27894897 196.80817017 -81.8743042 197.64368408 -81.45739746 198.5045166 C-70.87203066 220.65906031 -67.34597843 244.43776864 -74.99609375 268.078125 C-81.57696168 285.47529835 -93.77890686 297.04210412 -109 307 C-109.90492188 307.62777344 -110.80984375 308.25554687 -111.7421875 308.90234375 C-117.14315965 312.47775366 -121.49292324 314.25553986 -128 313 C-129.68164041 312.37206072 -131.35262274 311.71300098 -133 311 C-135.13176064 312.90957714 -137.2553245 314.82708763 -139.375 316.75 C-139.97828125 317.28882813 -140.5815625 317.82765625 -141.203125 318.3828125 C-141.78320312 318.91132813 -142.36328125 319.43984375 -142.9609375 319.984375 C-143.49509277 320.46616211 -144.02924805 320.94794922 -144.57958984 321.44433594 C-146.1550346 323.16979726 -147.04997548 324.87547258 -148 327 C-147.34 327.99 -146.68 328.98 -146 330 C-145.50640614 334.36007907 -145.72478136 336.50460646 -147.875 340.375 C-150 343 -150 343 -152 344 C-153.58361167 343.81486554 -155.16690381 343.62699182 -156.75 343.4375 C-159.45369408 343.2831028 -159.45369408 343.2831028 -162 344 C-164.77952511 346.96367584 -166.34041463 350.31933541 -168 354 C-168.62158979 355.21009115 -169.24582323 356.41883623 -169.875 357.625 C-170.431875 358.800625 -170.431875 358.800625 -171 360 C-170.175 360.804375 -169.35 361.60875 -168.5 362.4375 C-165.17617306 366.44994251 -165.55885434 369.99062288 -166 375 C-166.52755126 378.24120211 -167.28689839 381.3886797 -168.125 384.5625 C-168.35018311 385.4302002 -168.57536621 386.29790039 -168.80737305 387.19189453 C-176.55944753 416.18576926 -192.1779823 440.243174 -218.36328125 456.02734375 C-240.89134767 469.02488643 -269.87119448 472.2446684 -295.06298828 465.76586914 C-297.05282012 465.2083466 -299.02570554 464.6099813 -301 464 C-302.28509393 463.63389577 -303.57024974 463.26800866 -304.85546875 462.90234375 C-331.09765972 454.88011957 -353.36050713 438.71363106 -373 420 C-373.77859375 419.27425781 -374.5571875 418.54851562 -375.359375 417.80078125 C-390.52588611 403.25276262 -402.33039591 385.04446914 -411 366 C-411.54527344 364.81019531 -412.09054687 363.62039063 -412.65234375 362.39453125 C-424.34159207 335.11961851 -427.43856458 303.50981829 -416.39282227 275.55102539 C-405.96773634 250.41410868 -386.25276816 231.05187208 -361.25854492 220.33349609 C-354.61202293 217.65827698 -347.74339836 215.96483892 -340.8046875 214.234375 C-321.54270362 209.38182175 -305.20173235 201.8395584 -290 189 C-289.48308594 188.56816406 -288.96617187 188.13632813 -288.43359375 187.69140625 C-277.43192067 178.39926633 -269.48229393 167.77475614 -262.25097656 155.38696289 C-252.04597485 138.05512305 -237.3422488 124.27506735 -218 118 C-194.65209042 112.11098606 -169.88549444 117.00516487 -149.078125 128.6328125 C-147.61935813 129.50521229 -146.17553827 130.40415398 -144.76171875 131.34765625 C-142.97047705 132.23530842 -142.97047705 132.23530842 -141.10028458 131.23613167 C-138.94054749 129.96500897 -137.39988629 128.64624352 -135.63372803 126.87423706 C-134.98875366 126.23201202 -134.3437793 125.58978699 -133.67926025 124.92810059 C-132.98298523 124.22463501 -132.28671021 123.52116943 -131.56933594 122.79638672 C-130.82748047 122.0548233 -130.085625 121.31325989 -129.32128906 120.54922485 C-126.87088061 118.09742329 -124.427632 115.63861395 -121.984375 113.1796875 C-120.28658943 111.47817175 -118.58836171 109.77709708 -116.88970947 108.07644653 C-112.42025084 103.59935194 -107.95683086 99.11628362 -103.49462891 94.63195801 C-98.94014532 90.05701531 -94.37999433 85.48772952 -89.8203125 80.91796875 C-80.87464308 71.95085005 -71.9351471 62.97760292 -63 54 C-63.35006104 53.53094238 -63.70012207 53.06188477 -64.06079102 52.57861328 C-64.51639404 51.95712402 -64.97199707 51.33563477 -65.44140625 50.6953125 C-65.89459229 50.08187988 -66.34777832 49.46844727 -66.81469727 48.83642578 C-68.50606353 46.21594029 -68.93259626 44.10057227 -69 41 C-68.22047316 37.72598726 -67.15616648 36.16994588 -64.875 33.6875 C-61.21364847 31.53844584 -58.09490377 31.03414551 -54 32 C-51.6205034 33.45385733 -49.99450781 35.00549219 -48 37 C-44.63279613 35.60667426 -43.0140476 34.0210714 -41 31 C-42.2065625 30.01 -42.2065625 30.01 -43.4375 29 C-46.83816688 25.01873146 -47 23.19577135 -47 18 C-45.45123978 14.33188369 -43.53784843 11.86719778 -40 10 C-34.19461031 9.24744948 -31.65494574 10.68981636 -27 14 C-23.2055633 14.3926419 -23.2055633 14.3926419 -21.38427734 12.82250977 C-20.8733252 12.28424561 -20.36237305 11.74598145 -19.8359375 11.19140625 C-19.27132813 10.60939453 -18.70671875 10.02738281 -18.125 9.42773438 C-17.25875 8.50444336 -17.25875 8.50444336 -16.375 7.5625 C-15.21821713 6.35348354 -14.05945272 5.14635898 -12.8984375 3.94140625 C-12.38974121 3.40201416 -11.88104492 2.86262207 -11.35693359 2.30688477 C-8.16162157 -0.7705721 -4.16616257 -0.8909149 0 0 Z " fill="#010101" transform="translate(467,44)"/>
<path d="M0 0 C-1.3491808 2.99407486 -2.85835396 5.12519058 -5.14544678 7.47343445 C-5.79268204 8.14220612 -6.4399173 8.81097778 -7.10676575 9.50001526 C-7.81628891 10.22277145 -8.52581207 10.94552765 -9.25683594 11.69018555 C-10.00517197 12.45969543 -10.753508 13.22920532 -11.52452087 14.02203369 C-19.35272291 22.05523922 -27.24141516 30.02966574 -35.13427734 37.99926758 C-38.8746197 41.77968532 -42.59565925 45.57729255 -46.30126953 49.3918457 C-50.78108277 54.00313839 -55.29219094 58.58151497 -59.8272171 63.13849831 C-61.54631492 64.87652032 -63.25426845 66.62564188 -64.95043182 68.38605309 C-79.90487861 83.87653727 -79.90487861 83.87653727 -88.77050781 84.47192383 C-89.8297345 84.38961014 -90.88896118 84.30729645 -91.98028564 84.2224884 C-102.96729987 83.4129803 -114.03617232 91.35384433 -122.125 98 C-131.9566223 107.1658589 -138.03949283 120.62652253 -139.2734375 133.953125 C-139.71386738 148.25015645 -135.91250797 161.63760833 -127 173 C-126.15308594 173.82371094 -126.15308594 173.82371094 -125.2890625 174.6640625 C-124 176 -124 176 -124 178 C-123.43667969 178.26039063 -122.87335938 178.52078125 -122.29296875 178.7890625 C-119.77466426 180.11900184 -117.60394938 181.68500996 -115.3125 183.375 C-103.36537035 191.81342784 -90.46578188 194.55785343 -76 193 C-61.51581285 190.32255111 -48.01514957 183.23079358 -39.4375 171.0625 C-33.55817603 162.45001158 -29.99118875 153.77289594 -29.99072266 143.25366211 C-28.96489216 131.31597132 -18.17465479 123.59088533 -10.0859375 115.81640625 C-8.26992437 114.02467022 -6.45678292 112.23001935 -4.64639282 110.43260193 C-0.38104367 106.21161551 3.9118848 102.02085886 8.22002828 97.84372419 C13.12854052 93.08124056 17.99956215 88.28115253 22.86801457 83.47777855 C32.87126755 73.60989091 42.91996361 63.78939719 53 54 C61.58306601 62.04960462 64.7896848 77.89645141 65.28125 89.1328125 C65.32330018 90.98416121 65.35452112 92.83578704 65.375 94.6875 C65.38901855 95.5544751 65.40303711 96.4214502 65.41748047 97.31469727 C65.31577839 111.05099762 59.3943192 121.97380431 50.19140625 131.91015625 C45.6226664 136.26715415 40.36800315 139.53009778 35.0234375 142.84765625 C34.04632813 143.45480469 33.06921875 144.06195313 32.0625 144.6875 C31.16660156 145.22761719 30.27070313 145.76773438 29.34765625 146.32421875 C26.88932735 148.07899928 25.53914569 149.41104405 24 152 C24.13123961 154.36363857 24.13123961 154.36363857 24.77734375 156.7890625 C25.39628708 161.37850623 25.39628708 161.37850623 23.68798828 164.05761719 C21.73469798 165.97880279 19.72075084 167.68760531 17.5625 169.375 C16.13909418 170.53972061 14.72330028 171.71382474 13.31640625 172.8984375 C12.68162354 173.40036621 12.04684082 173.90229492 11.39282227 174.41943359 C9.55923841 176.14905858 9.55923841 176.14905858 10 180 C10.33 180.66 10.66 181.32 11 182 C11.54724071 187.69130337 10.59333707 190.56117185 7 195 C4.43744745 196.28127628 3.07262901 195.77536014 0.25 195.4375 C-2.45608667 195.28799718 -2.45608667 195.28799718 -5 196 C-7.76986907 198.95686445 -9.304548 202.34947991 -11 206 C-11.7777426 207.38292356 -12.56736786 208.75931649 -13.375 210.125 C-13.91125 211.07375 -14.4475 212.0225 -15 213 C-16.051875 212.9175 -17.10375 212.835 -18.1875 212.75 C-22.70672119 213.04634237 -23.99487155 213.66096839 -27 217 C-29.31469138 222.47377273 -30.64841894 227.74643329 -31.75 233.5625 C-35.38485784 251.10164182 -44.48463771 266.26583767 -57 279 C-57.61359375 279.62648438 -58.2271875 280.25296875 -58.859375 280.8984375 C-67.43672734 288.99927026 -78.74313342 294.71962477 -90 298 C-90.73734375 298.22429687 -91.4746875 298.44859375 -92.234375 298.6796875 C-112.15969252 303.69537088 -134.59917085 299.14567722 -153 291 C-153.65709961 290.70996094 -154.31419922 290.41992188 -154.99121094 290.12109375 C-169.97860529 283.36250303 -183.06526754 274.28492851 -195 263 C-196.30856702 261.89117511 -197.62094901 260.78683332 -198.9375 259.6875 C-223.106493 238.42459835 -241.41853097 207.23322125 -245 175 C-245.71343123 161.94519934 -246.13148688 149.22544041 -241 137 C-240.73687012 136.36690918 -240.47374023 135.73381836 -240.20263672 135.08154297 C-230.92813032 113.33605342 -214.62335841 99.02819524 -193 90 C-186.83256968 87.70882846 -180.55592143 86.12557954 -174.16015625 84.61157227 C-138.22278772 76.01954066 -109.57367186 52.85525491 -90 22 C-88.81232594 20.06260669 -87.62480665 18.12511849 -86.4375 16.1875 C-78.41179491 3.5380866 -67.62801508 -6.2708719 -53.4375 -11.25 C-34.85173328 -15.23525212 -16.27091027 -8.58742486 0 0 Z " fill="#EA9170" transform="translate(310,192)"/>
<path d="M0 0 C3.5950112 3.32538536 4.84318906 6.35888028 5.12863445 11.16655159 C5.1303103 11.95367971 5.13198614 12.74080784 5.13371277 13.55178833 C5.14011024 14.9140731 5.14011024 14.9140731 5.14663696 16.30387878 C5.14618378 17.29301773 5.14573059 18.28215668 5.14526367 19.30126953 C5.14862228 20.3489299 5.1519809 21.39659027 5.15544128 22.47599792 C5.16495155 25.94494814 5.16689471 29.41385005 5.16796875 32.8828125 C5.17118223 35.29694641 5.17454637 37.71108012 5.17805481 40.12521362 C5.18404694 45.19090221 5.18589472 50.25657374 5.18530273 55.32226562 C5.18520133 61.79836554 5.19883127 68.2743553 5.21607494 74.75042915 C5.22722272 79.74000546 5.22922106 84.72955543 5.22869301 89.71914291 C5.22986979 92.10563409 5.23427457 94.49212601 5.24202538 96.87860489 C5.25187739 100.22660143 5.24892618 103.57436255 5.24291992 106.92236328 C5.24853943 107.89935684 5.25415894 108.8763504 5.25994873 109.88294983 C5.20796509 121.34811895 3.28000846 132.49620753 -5 141 C-15.56972392 149.20461738 -24.80907626 151.13441944 -38 150 C-46.27961574 148.33072263 -52.51192789 143.25679143 -58 137 C-63.79504453 127.921983 -64.8200213 119.67182655 -64 109 C-61.51827601 98.61930307 -54.99246949 90.52985193 -46 85 C-40.61614422 82.11579154 -35.93244519 81.73564046 -29.875 81.6875 C-29.19373047 81.68186035 -28.51246094 81.6762207 -27.81054688 81.67041016 C-23.25678418 81.7358123 -20.49769735 82.50076755 -16 84 C-16.33 64.53 -16.66 45.06 -17 25 C-35.48 31.27 -53.96 37.54 -73 44 C-73.02578125 51.53585938 -73.0515625 59.07171875 -73.078125 66.8359375 C-73.10330298 71.62112738 -73.12964335 76.40625467 -73.16015625 81.19140625 C-73.20843598 88.78011278 -73.25250165 96.36867433 -73.27099609 103.95751953 C-73.28618319 110.07850793 -73.32066611 116.19911606 -73.36830902 122.31993484 C-73.38310148 124.65056674 -73.39103978 126.98125293 -73.39188385 129.31193161 C-73.39426159 132.58645521 -73.42140782 135.8599348 -73.45410156 139.13427734 C-73.44655602 140.56711563 -73.44655602 140.56711563 -73.43885803 142.02890015 C-73.60031071 152.53857523 -77.53926175 161.56768361 -85 169 C-93.58010016 175.53655265 -102.29649121 178.02324894 -113 177 C-122.4348115 175.27535704 -130.78932876 170.57090561 -136.71484375 162.9453125 C-142.61363818 154.01643825 -143.24945802 144.42466264 -142 134 C-141.15380579 130.57719196 -139.92535266 127.93901185 -138 125 C-137.57589844 124.30648437 -137.15179688 123.61296875 -136.71484375 122.8984375 C-131.55149637 115.21813805 -124.35997924 110.78883358 -115.4765625 108.46484375 C-108.45974909 107.1478078 -102.81968868 108.26199564 -96 110 C-95.99635437 109.0486618 -95.99270874 108.09732361 -95.98895264 107.11715698 C-95.95197583 98.14197469 -95.89417392 89.16713465 -95.81609726 80.19221306 C-95.77662527 75.5783231 -95.74443547 70.9646239 -95.72900391 66.35058594 C-95.71383541 61.89589723 -95.67938668 57.44173301 -95.63169098 52.98727798 C-95.61687913 51.28972055 -95.60895909 49.59208824 -95.60811615 47.8944664 C-95.60574406 45.51224925 -95.57864743 43.1314787 -95.54589844 40.74951172 C-95.55344398 39.7018589 -95.55344398 39.7018589 -95.56114197 38.63304138 C-95.45586416 33.66806679 -94.17091426 30.78875579 -91 27 C-89.14897156 25.79649353 -89.14897156 25.79649353 -87.2175293 25.14819336 C-86.48141922 24.88985214 -85.74530914 24.63151093 -84.9868927 24.36534119 C-84.1907103 24.10942703 -83.39452789 23.85351288 -82.57421875 23.58984375 C-81.73054245 23.30021255 -80.88686615 23.01058136 -80.0176239 22.71217346 C-77.24736917 21.76681748 -74.46821091 20.85159569 -71.6875 19.9375 C-69.76005204 19.28932659 -67.83313663 18.63956752 -65.90673828 17.98828125 C-61.92908032 16.64676799 -57.94757796 15.31755597 -53.96337891 13.99560547 C-49.13490131 12.38820731 -44.32490609 10.73317664 -39.5216217 9.05213928 C-35.9845191 7.8148605 -32.44231001 6.59267757 -28.89907837 5.37307739 C-27.22903415 4.79540997 -25.56083523 4.21237726 -23.8946228 3.62374878 C-21.56818391 2.80451143 -19.23483996 2.00904533 -16.8984375 1.21875 C-16.22826096 0.9768544 -15.55808441 0.7349588 -14.86759949 0.48573303 C-9.8446981 -1.17450947 -5.15007829 -1.39072336 0 0 Z " fill="#000000" transform="translate(142,70)"/>
<path d="M0 0 C0.53367187 0.38671875 1.06734375 0.7734375 1.6171875 1.171875 C2.13925781 0.78515625 2.66132813 0.3984375 3.19921875 0 C12.26386946 -6.41351819 21.37262632 -10.30207424 32.6171875 -8.828125 C44.12553879 -6.501676 52.56823457 -1.60808836 59.3359375 8.0546875 C65.72476717 18.61183897 67.53194994 30.2654943 64.93359375 42.3515625 C62.80007129 48.60163245 59.56281306 53.90757985 55.6171875 59.171875 C54.8953125 60.161875 54.1734375 61.151875 53.4296875 62.171875 C49.41730529 66.78989981 44.43047869 70.43583088 39.6171875 74.171875 C39.03001953 74.62868652 38.44285156 75.08549805 37.83789062 75.55615234 C6.33585651 99.92643005 6.33585651 99.92643005 -3.3828125 99.171875 C-6.53125 97.66015625 -6.53125 97.66015625 -9.7578125 95.484375 C-10.34941162 95.08718262 -10.94101074 94.68999023 -11.55053711 94.28076172 C-24.08653791 85.72839089 -36.01840903 76.2202372 -47.3828125 66.171875 C-48.22585937 65.44871094 -49.06890625 64.72554688 -49.9375 63.98046875 C-57.91456828 56.68830027 -63.92203417 46.37059221 -64.62109375 35.44921875 C-64.94683664 22.61642942 -63.02269765 12.54952517 -54.1328125 2.671875 C-37.52754763 -12.42382033 -18.28923122 -12.78347649 0 0 Z " fill="#010000" transform="translate(273.3828125,8.828125)"/>
<path d="M0 0 C4.9653071 2.32715257 9.42181933 5.82545589 13 10 C13 10.66 13 11.32 13 12 C13.57105469 12.25007812 14.14210938 12.50015625 14.73046875 12.7578125 C17.32526745 14.17802934 19.1895481 15.81802649 21.3125 17.875 C22.03050781 18.55304688 22.74851562 19.23109375 23.48828125 19.9296875 C25 22 25 22 24.94087982 23.76086998 C23.52460823 27.13134957 21.023827 29.37393871 18.4576416 31.89639282 C17.58149633 32.77532466 17.58149633 32.77532466 16.68765116 33.67201269 C14.72395246 35.63831606 12.74971524 37.59368679 10.77539062 39.54931641 C9.36736567 40.95485872 7.9600074 42.36106917 6.55326843 43.76789856 C2.72731766 47.59043288 -1.10774155 51.4037121 -4.94432259 55.21557283 C-8.95203756 59.20084301 -12.95089571 63.19497849 -16.95056152 67.18832397 C-24.52966203 74.75292576 -32.11595124 82.31027264 -39.70518827 89.86470354 C-53.30408537 103.40169967 -66.89082837 116.95088965 -80.47486925 130.50279176 C-85.24598658 135.26204814 -90.02026049 140.01810946 -94.79715729 144.77156472 C-97.76281896 147.72343562 -100.72652183 150.67726755 -103.68977928 153.63155174 C-105.06881973 155.00550716 -106.4487354 156.37858473 -107.82956886 157.75073814 C-109.70786858 159.61741619 -111.5831199 161.48710373 -113.4576416 163.35757446 C-114.01045225 163.90542591 -114.56326289 164.45327735 -115.13282537 165.01773036 C-117.9132106 167.74620972 -117.9132106 167.74620972 -120 171 C-120.66 171 -121.32 171 -122 171 C-123.0585155 169.39117673 -124.04551622 167.73514105 -125 166.0625 C-130.20858359 157.64195653 -137.15668278 151.42165861 -146 147 C-142.16563841 142.41805072 -138.19917489 138.05552042 -133.96353149 133.84327698 C-133.38670761 133.26559867 -132.80988374 132.68792037 -132.21558034 132.09273666 C-130.30184371 130.1773663 -128.38457988 128.26556794 -126.46728516 126.35375977 C-125.08689242 124.97364938 -123.7067204 123.5933182 -122.32675171 122.21278381 C-118.59392434 118.47967035 -114.85802882 114.7496412 -111.12156343 111.0201695 C-107.21200951 107.11688039 -103.30530029 103.21074616 -99.39828491 99.30491638 C-92.00563517 91.91537074 -84.61044072 84.52837725 -77.21432245 77.14230341 C-68.79156696 68.73073768 -60.37166165 60.31632141 -51.95199132 51.90166771 C-34.63782433 34.59794425 -17.3200916 17.29779311 0 0 Z " fill="#FDFDFD" transform="translate(397,134)"/>
<path d="M0 0 C2.18918999 0.73920383 4.38510145 1.455548 6.58178711 2.17211914 C7.98655503 2.6466384 9.39086937 3.12250301 10.79467773 3.59985352 C11.44576004 3.80838455 12.09684235 4.01691559 12.76765442 4.23176575 C17.12729964 5.7536178 19.3693896 7.55531361 21.86889648 11.42407227 C22.63784638 14.52108424 22.5407408 17.30761796 21.86889648 20.42407227 C19.68730503 23.17976673 17.99712155 24.85995973 14.86889648 26.42407227 C8.42024889 26.3109381 3.02751464 24.54705315 -2.97094727 22.36547852 C-3.75723511 22.08353638 -4.54352295 21.80159424 -5.3536377 21.5111084 C-7.28089111 20.81940522 -9.20619773 20.12228192 -11.13110352 19.42407227 C-11.12111076 21.17268303 -11.12111076 21.17268303 -11.11091614 22.95661926 C-11.04993904 33.97555542 -11.00505138 44.99445707 -10.975667 56.01352406 C-10.96005205 61.67770771 -10.93889023 67.34175448 -10.90478516 73.00585938 C-10.87204267 78.47829714 -10.85421917 83.95060373 -10.84647179 89.42313194 C-10.84095493 91.50458527 -10.83018222 93.58603191 -10.81391335 95.66742897 C-10.6987675 111.01791592 -10.71900334 124.31227159 -21.76000977 136.17407227 C-29.07614727 142.96399106 -38.02167835 145.80906239 -47.92797852 145.63891602 C-58.86200532 144.57265454 -67.41516461 139.22300726 -74.36547852 130.93188477 C-80.03434947 122.88008133 -81.27312716 114.07829279 -80.13110352 104.42407227 C-78.1742692 95.67042292 -73.94444581 88.03020974 -66.70141602 82.60375977 C-58.13031424 77.21099968 -50.20499358 75.55031649 -40.13110352 76.42407227 C-37.79150063 77.06839147 -35.45723246 77.73268742 -33.13110352 78.42407227 C-33.1296785 77.46020599 -33.12825348 76.49633972 -33.12678528 75.50326538 C-33.11010047 66.41032709 -33.06728173 57.31783548 -32.99901295 48.2251339 C-32.9647528 43.55065903 -32.9396345 38.87651065 -32.93554688 34.2019043 C-32.93126181 29.68879153 -32.90278217 25.17641513 -32.85767174 20.66353226 C-32.84470334 18.94364336 -32.84038675 17.22366632 -32.84494972 15.50373459 C-32.8498607 13.09014583 -32.82374525 10.67870518 -32.79052734 8.26538086 C-32.79915298 7.55759491 -32.80777863 6.84980896 -32.81666565 6.12057495 C-32.68794981 0.52525155 -30.956087 -1.78311672 -27.13110352 -5.57592773 C-19.50106357 -8.92554842 -7.53014232 -2.5588358 0 0 Z " fill="#000000" transform="translate(451.131103515625,345.575927734375)"/>
<path d="M0 0 C10.24950399 5.15422072 15.79314596 12.44258135 20.09570312 22.89672852 C22.83561079 31.69604736 21.31379118 40.47994692 17.76367188 48.78344727 C12.85392169 57.94754772 5.67081995 63.96512752 -3.90429688 67.89672852 C-13.50820191 70.3860607 -23.21589784 69.71036983 -31.90429688 64.89672852 C-41.24800741 59.09660767 -47.90150616 51.28174564 -50.49023438 40.44360352 C-52.26551488 29.52395362 -50.20572635 20.09327712 -43.71679688 11.08422852 C-33.12695636 -1.59183325 -15.3867045 -6.71657847 0 0 Z " fill="#FCC656" transform="translate(240.904296875,297.103271484375)"/>
<path d="M0 0 C6.50154263 3.48296927 10.89467947 8.21703478 15.5 13.875 C18.51778937 15.38389469 20.12322637 15.37526276 23.5 14.875 C26.42973371 12.818838 28.92894789 10.35653772 31.5 7.875 C32.7405698 6.76024864 33.98998909 5.65522894 35.25 4.5625 C35.78109375 4.09199219 36.3121875 3.62148438 36.859375 3.13671875 C41.54743531 -0.46862287 45.74521538 -0.84553316 51.5 -0.125 C56.96744979 1.26418869 59.92753187 3.94794079 63 8.625 C66.06401899 14.35119942 66.37768122 17.99369858 64.97265625 24.20703125 C60.80529146 37.37258668 47.20422491 45.77073505 36.49121094 53.44384766 C34.55627718 54.83455164 32.64066425 56.24878893 30.7265625 57.66796875 C29.56868915 58.50916421 28.40988537 59.34908099 27.25 60.1875 C26.23421875 60.92613281 25.2184375 61.66476563 24.171875 62.42578125 C21.5 63.875 21.5 63.875 19.55078125 63.88671875 C16.45595733 62.35993895 13.71101124 60.40903419 10.9375 58.375 C10.31907227 57.92648682 9.70064453 57.47797363 9.06347656 57.01586914 C-21.25622549 34.83062605 -21.25622549 34.83062605 -24.5 22.875 C-25.45632202 16.51337959 -24.75333226 11.90027312 -21 6.6328125 C-15.09398512 -0.28829869 -9.0022044 -2.8935657 0 0 Z " fill="#FC5C5C" transform="translate(253.5,21.125)"/>
<path d="M0 0 C4.86650064 3.55345951 8.92211409 7.85044189 13.09375 12.1796875 C14.33211882 13.43231751 15.57242553 14.68303439 16.8145752 15.93191528 C20.06994049 19.21589146 23.29696132 22.52642041 26.51916504 25.84289551 C29.8100058 29.21891241 33.12947174 32.56653866 36.4453125 35.91796875 C41.27338998 40.80943536 46.09503395 45.70708022 50.88867188 50.63232422 C51.39457855 51.14877502 51.90048523 51.66522583 52.42172241 52.19732666 C56.89420119 56.80976335 56.89420119 56.80976335 57.25 60.8125 C56.96536066 64.44165156 56.22214094 66.14296165 54 69 C51.5982138 70.80133965 49.73332492 71.0461553 46.75 71.5625 C37.61754033 70.19263105 30.16216307 59.32553632 23.7890625 52.95703125 C22.72918646 51.9003757 21.66923845 50.84379233 20.60922241 49.78727722 C18.40389263 47.58789288 16.20059591 45.38649498 13.99853516 43.18383789 C11.17918901 40.36438945 8.35298309 37.5519248 5.52503395 34.74110889 C3.34089385 32.56808161 1.16130804 30.39053034 -1.01701736 28.21167564 C-2.05759983 27.17227094 -3.09979898 26.13448207 -4.14365768 25.09836769 C-5.5984524 23.65337431 -7.04677035 22.20217812 -8.49365234 20.74926758 C-9.31779633 19.92654861 -10.14194031 19.10382965 -10.99105835 18.25617981 C-13.69519854 15.21924417 -14.86095343 13.08919811 -15.375 9.0625 C-14.90977662 5.2631757 -13.63608379 3.71361566 -11 1 C-7.16187254 -0.91906373 -4.04237675 -1.15343563 0 0 Z " fill="#020101" transform="translate(121,379)"/>
<path d="M0 0 C7.26913778 2.53641532 13.59288954 11.15589631 18.90991211 16.50073242 C19.67625977 17.26321289 20.44260742 18.02569336 21.23217773 18.8112793 C21.95985352 19.54024414 22.6875293 20.26920898 23.43725586 21.02026367 C24.09330811 21.67744385 24.74936035 22.33462402 25.42529297 23.01171875 C27.23382611 24.97150999 27.95457863 26.0283937 28.02709961 28.71166992 C27.71818389 32.75443645 27.53154874 35.03042462 24.84741211 38.18823242 C21.19785508 40.09234914 19.12895342 40.89958198 14.97241211 40.68823242 C13.1940918 39.46606445 13.1940918 39.46606445 11.33178711 37.75854492 C10.63400146 37.12037842 9.93621582 36.48221191 9.21728516 35.82470703 C5.26589447 32.06411759 1.38255169 28.24227932 -2.46508789 24.37573242 C-3.27913086 23.56555664 -4.09317383 22.75538086 -4.93188477 21.9206543 C-5.70467773 21.14657227 -6.4774707 20.37249023 -7.27368164 19.57495117 C-8.32060181 18.52633911 -8.32060181 18.52633911 -9.38867188 17.45654297 C-12.20444043 14.41846586 -12.41693893 11.84900053 -12.38696289 7.72729492 C-11.78435769 4.30816544 -9.65972722 2.7563419 -7.02758789 0.68823242 C-4.54911332 -0.55100486 -2.70330753 -0.44297751 0 0 Z " fill="#030201" transform="translate(163.027587890625,365.311767578125)"/>
<path d="M0 0 C4.09596838 3.39380237 6.98519212 6.70849809 7.5 12.0625 C7.07388355 17.17589744 4.89712767 19.8293319 1.625 23.625 C-1.63535347 26.31833548 -5.50938144 26.1486432 -9.52734375 26.08984375 C-13.14994393 25.65017775 -15.14006608 24.23041641 -17.8125 21.8125 C-20.86396436 17.33701893 -21.76303785 13.10382736 -20.8125 7.8125 C-16.45009319 -0.75074299 -8.9329382 -3.77168502 0 0 Z " fill="#B4E7F9" transform="translate(40.8125,200.1875)"/>
<path d="M0 0 C3.65443479 2.08714004 6.79055905 4.88790076 8 9 C8.4850824 14.23888993 7.85631117 17.56779301 5 22 C0.68123854 25.89741887 -1.99534723 27.36701401 -7.90234375 27.28125 C-12.28943614 26.6930365 -15.00003791 24.0999583 -17.875 20.9375 C-19.6433532 16.3201333 -19.65349477 11.87551156 -19 7 C-14.9257977 -0.52160424 -7.82922117 -2.31095079 0 0 Z " fill="#6BB0C3" transform="translate(118,173)"/>
<path d="M0 0 C4.40830916 2.16407904 7.12843553 4.42506462 9 9 C9.7205356 15.38188672 8.84405165 18.84087804 5 24 C0.66375637 26.98719005 -2.7924678 27.55794988 -8 27 C-12.62994259 25.27511943 -15.62722164 23.38051389 -18 19 C-18.83840474 14.33095293 -19.13350166 9.97671631 -16.71875 5.765625 C-11.76546788 -0.11032732 -7.56469399 -0.83664818 0 0 Z " fill="#00D8A5" transform="translate(410,443)"/>
<path d="M0 0 C5.44713342 2.29178655 9.208343 6.79861437 13.32885742 10.90332031 C14.81315947 12.37565416 16.31510259 13.8283063 17.81835938 15.28125 C18.75099609 16.20679687 19.68363281 17.13234375 20.64453125 18.0859375 C21.50409424 18.9320459 22.36365723 19.7781543 23.24926758 20.64990234 C25 23 25 23 24.93237305 25.13525391 C23.50986768 27.98026464 21.31569043 29.8624396 19 32 C15.13671373 30.4152642 12.71123077 27.94043113 9.796875 24.9921875 C9.3142218 24.50670441 8.8315686 24.02122131 8.33428955 23.52102661 C6.80141438 21.97700134 5.27565996 20.42615176 3.75 18.875 C2.70879639 17.82375991 1.66713459 16.77297343 0.625 15.72265625 C-1.92199464 13.15366996 -4.46265177 10.57851839 -7 8 C-6.02133662 6.85373678 -5.04205413 5.70800212 -4.0625 4.5625 C-3.51722656 3.92441406 -2.97195313 3.28632812 -2.41015625 2.62890625 C-1.63204305 1.73008851 -0.84063472 0.84063472 0 0 Z " fill="#B16E51" transform="translate(441,90)"/>
<path d="M0 0 C3.76603869 1.56282982 6.13639151 3.9063475 8.984375 6.7890625 C9.44483215 7.25234955 9.90528931 7.7156366 10.37969971 8.19296265 C11.84125078 9.66565898 13.29567168 11.14517403 14.75 12.625 C15.74302611 13.62806322 16.73651089 14.63067257 17.73046875 15.6328125 C20.15897941 18.08330835 22.58114675 20.5399667 25 23 C23.44805246 26.32759923 21.69378051 28.48580485 19 31 C15.23396131 29.43717018 12.86360849 27.0936525 10.015625 24.2109375 C9.55516785 23.74765045 9.09471069 23.2843634 8.62030029 22.80703735 C7.15874922 21.33434102 5.70432832 19.85482597 4.25 18.375 C3.25697389 17.37193678 2.26348911 16.36932743 1.26953125 15.3671875 C-1.15897941 12.91669165 -3.58114675 10.4600333 -6 8 C-4.44805246 4.67240077 -2.69378051 2.51419515 0 0 Z " fill="#BA7355" transform="translate(419,112)"/>
<path d="M0 0 C3.92175855 1.96087927 5.94122867 3.70880463 8.984375 6.7890625 C9.44483215 7.25234955 9.90528931 7.7156366 10.37969971 8.19296265 C11.84125078 9.66565898 13.29567168 11.14517403 14.75 12.625 C15.74302611 13.62806322 16.73651089 14.63067257 17.73046875 15.6328125 C20.15897941 18.08330835 22.58114675 20.5399667 25 23 C23.34807388 27.20490286 21.98771331 27.80982935 18 31 C10.08 23.08 2.16 15.16 -6 7 C-4.02 4.69 -2.04 2.38 0 0 Z " fill="#BB7356" transform="translate(462,69)"/>
<path d="M0 0 C5.53846154 3.07692308 5.53846154 3.07692308 7 6 C7.54724071 11.69130337 6.59333707 14.56117185 3 19 C-0.50580076 20.75290038 -4.18379058 20.67770616 -8 20 C-11.16664776 17.41498142 -12.5764456 15.94003044 -13.4375 11.99609375 C-13.66167019 8.30429097 -13.10710782 6.16780225 -11.125 3.0625 C-7.51233599 -0.44390919 -4.9799029 -0.41499191 0 0 Z " fill="#010100" transform="translate(314,368)"/>
</svg>
